<svg width="337" height="143" viewBox="0 0 337 143" fill="none" xmlns="http://www.w3.org/2000/svg">
<rect y="16" width="337" height="113" rx="10" fill="#D62828"/>
<path d="M15.28 114C14.96 114 14.8 113.8 14.8 113.4L15.04 30.96C15.04 30.64 15.2 30.48 15.52 30.48H30.16C30.48 30.48 30.76 30.64 31 30.96L41.92 46.8L52.84 30.96C53.08 30.64 53.36 30.48 53.68 30.48H68.44C68.76 30.48 68.92 30.64 68.92 30.96L69.16 113.4C69.16 113.8 69 114 68.68 114H55.12C54.8 114 54.64 113.8 54.64 113.4L54.52 52.2L41.92 70.44L29.44 52.2L29.32 113.4C29.32 113.8 29.16 114 28.84 114H15.28ZM75.1731 113.4L90.0531 30.96C90.1331 30.64 90.3331 30.48 90.6531 30.48H108.053C108.373 30.48 108.573 30.64 108.653 30.96L122.933 113.4C123.013 113.8 122.853 114 122.453 114H109.133C108.813 114 108.613 113.8 108.533 113.4L107.213 104.64H90.8931L89.5731 113.4C89.4931 113.8 89.2931 114 88.9731 114H75.6531C75.3331 114 75.1731 113.8 75.1731 113.4ZM93.2931 91.8H104.813L99.8931 58.08L99.1731 53.64L98.6931 58.08L93.2931 91.8ZM130.944 114C130.624 114 130.464 113.8 130.464 113.4L130.704 31.08C130.704 30.68 130.864 30.48 131.184 30.48H144.624C144.944 30.48 145.104 30.68 145.104 31.08V59.52L163.944 30.96C164.184 30.64 164.464 30.48 164.784 30.48H178.584C178.904 30.48 178.984 30.64 178.824 30.96L158.064 64.08L181.344 113.52C181.504 113.84 181.304 114 180.744 114H166.104C165.704 114 165.464 113.84 165.384 113.52L149.184 78.24L144.984 84.84V113.4C144.984 113.8 144.824 114 144.504 114H130.944ZM187.194 114C186.874 114 186.714 113.8 186.714 113.4L186.834 30.96C186.834 30.64 186.994 30.48 187.314 30.48H225.834C226.154 30.48 226.314 30.68 226.314 31.08V44.52C226.314 44.84 226.154 45 225.834 45H201.234V63.72H225.834C226.154 63.72 226.314 63.88 226.314 64.2L226.434 77.76C226.434 78.08 226.274 78.24 225.954 78.24H201.234V99.24H225.954C226.274 99.24 226.434 99.44 226.434 99.84V113.52C226.434 113.84 226.274 114 225.954 114H187.194ZM255.517 114C255.117 114 254.917 113.8 254.917 113.4L255.037 30.96C255.037 30.64 255.197 30.48 255.517 30.48H268.957C269.277 30.48 269.437 30.64 269.437 30.96L269.557 113.4C269.557 113.8 269.397 114 269.077 114H255.517ZM292.113 114C291.793 114 291.633 113.8 291.633 113.4V45H276.033C275.633 45 275.433 44.8 275.433 44.4L275.553 30.96C275.553 30.64 275.713 30.48 276.033 30.48H321.633C322.033 30.48 322.233 30.64 322.233 30.96V44.4C322.233 44.8 322.073 45 321.753 45H306.033L306.152 113.4C306.152 113.8 305.993 114 305.673 114H292.113Z" fill="white"/>
</svg>
